<svg version="1.0" xmlns="http://www.w3.org/2000/svg"
    width="500.000000pt" height="500.000000pt" viewBox="0 0 500.000000 500.000000"
    preserveAspectRatio="xMidYMid meet">

    <g transform="translate(0.000000,500.000000) scale(0.100000,-0.100000)"
        fill="#fff" stroke="none">
        <path
            d="M1685 3953 c-118 -16 -276 -83 -357 -151 -114 -95 -181 -199 -230
-353 l-23 -74 0 -910 c0 -1021 -4 -961 75 -1120 101 -205 297 -346 532 -385
39 -6 384 -10 923 -10 968 0 937 -2 1090 74 197 97 336 280 379 496 15 77 16
175 13 980 -3 865 -4 897 -23 960 -29 92 -64 156 -133 243 -71 89 -128 135
-236 188 -143 70 -117 69 -1100 67 -484 0 -893 -3 -910 -5z m816 -304 c67 -34
109 -105 109 -186 0 -44 15 -49 55 -18 96 73 203 73 297 1 55 -41 90 -137 74
-201 l-6 -25 -278 0 c-157 0 -293 5 -314 10 -27 8 -44 23 -67 56 l-30 45 -14
-28 c-36 -67 -102 -96 -186 -81 -74 13 -121 72 -121 150 0 80 70 148 153 148
31 0 37 4 46 33 16 47 61 87 123 108 59 20 101 17 159 -12z m289 -38 c0 -44
-39 -79 -104 -95 -28 -7 -29 -6 -22 26 8 44 48 78 92 78 19 0 34 -4 34 -9z
m-775 -471 c35 -22 65 -73 65 -112 0 -54 -74 -128 -128 -128 -40 0 -90 30
-113 67 -39 62 -10 156 56 183 35 15 87 11 120 -10z m1160 -37 c22 -12 54 -36
72 -55 58 -60 63 -85 63 -315 0 -198 -1 -210 -24 -259 -40 -86 -127 -134 -243
-134 l-53 0 0 -84 c0 -110 -31 -175 -105 -221 l-48 -30 -259 -3 c-291 -4 -330
3 -385 61 -64 67 -63 60 -63 462 0 352 1 367 21 407 17 33 20 54 17 102 -3 34
-9 69 -13 79 -7 17 15 18 486 15 485 -3 495 -3 534 -25z m-1179 -467 c27 -27
34 -42 34 -72 0 -41 -21 -74 -57 -93 -67 -34 -153 25 -153 105 0 41 59 94 105
94 29 0 45 -8 71 -34z m-326 -511 c35 -18 50 -43 50 -85 0 -90 -141 -112 -170
-26 -19 59 20 123 78 125 7 1 26 -6 42 -14z m18 -241 c22 -25 29 -68 14 -90
-12 -19 -49 -34 -81 -34 -41 0 -71 31 -71 73 0 81 82 111 138 51z m448 7 c101
-46 142 -194 73 -267 l-24 -25 37 -32 c77 -66 79 -168 5 -245 -59 -61 -76 -66
-260 -70 -122 -3 -171 -1 -182 8 -13 11 -15 62 -15 325 0 171 3 315 7 318 3 4
76 7 162 7 131 0 163 -3 197 -19z m555 -164 c82 -44 130 -132 115 -212 -10
-54 -42 -65 -185 -65 -132 0 -140 -5 -76 -49 41 -28 93 -32 153 -12 38 13 44
13 62 -4 14 -13 20 -29 18 -49 -3 -26 -11 -35 -53 -56 -138 -69 -321 5 -370
149 -28 82 -17 149 36 228 60 87 203 121 300 70z m516 -13 c21 -17 48 -45 60
-63 26 -38 39 -114 27 -150 -15 -41 -48 -51 -177 -51 -116 0 -118 0 -106 -21
6 -11 31 -30 56 -41 43 -19 49 -19 107 -5 66 16 90 11 101 -23 11 -34 -4 -58
-53 -82 -71 -35 -169 -32 -241 7 -95 52 -141 125 -141 224 0 99 44 171 132
216 46 23 63 26 125 23 62 -3 76 -7 110 -34z m274 -3 c13 -27 17 -30 22 -17
10 24 73 48 108 41 18 -4 35 -18 44 -35 19 -37 19 -55 -1 -85 -13 -20 -25 -25
-56 -25 -53 0 -94 -23 -107 -61 -6 -18 -11 -83 -11 -145 0 -129 -3 -134 -84
-134 -74 0 -76 8 -76 260 0 159 3 219 12 228 8 8 35 12 73 10 57 -3 61 -5 76
-37z m-1787 -17 c14 -13 16 -47 16 -214 0 -194 -1 -199 -22 -214 -32 -23 -94
-20 -118 4 -19 19 -20 33 -20 211 0 112 4 198 10 210 14 25 110 28 134 3z" />
        <path
            d="M2297 2992 c-15 -17 -17 -55 -17 -339 0 -297 1 -321 18 -336 24 -22
38 -21 62 3 19 19 20 33 20 335 0 302 -1 316 -20 335 -25 25 -42 25 -63 2z" />
        <path
            d="M2530 2990 c-19 -19 -20 -33 -20 -338 0 -302 1 -320 19 -336 25 -23
59 -13 72 21 5 13 9 161 9 329 0 291 -1 305 -20 324 -11 11 -24 20 -30 20 -5
0 -19 -9 -30 -20z" />
        <path
            d="M2760 2990 c-19 -19 -20 -33 -20 -333 0 -267 2 -316 16 -335 18 -26
37 -28 58 -6 14 13 16 59 16 344 0 315 -1 330 -19 340 -26 13 -28 13 -51 -10z" />
        <path
            d="M2990 2735 l0 -255 48 0 c56 0 108 28 122 66 14 35 13 343 -1 383
-14 40 -54 61 -119 61 l-50 0 0 -255z" />
        <path
            d="M1927 1773 c-9 -8 -9 -80 -1 -110 5 -19 13 -23 49 -23 61 0 104 18
111 46 10 38 -4 74 -32 84 -29 11 -117 13 -127 3z" />
        <path
            d="M1925 1503 c2 -10 4 -39 4 -65 l1 -48 75 0 c67 0 79 3 100 25 14 13
25 31 25 40 0 9 -11 27 -25 40 -21 22 -33 25 -104 25 -70 0 -79 -2 -76 -17z" />
        <path
            d="M2565 1643 c-28 -7 -65 -43 -65 -65 0 -16 9 -18 85 -18 94 0 104 8
63 54 -25 27 -52 36 -83 29z" />
        <path
            d="M3050 1639 c-22 -8 -60 -54 -60 -73 0 -3 41 -6 90 -6 99 0 109 8 68
53 -27 29 -63 39 -98 26z" />
    </g>
</svg>